<svg width="54" height="39" viewBox="0 0 54 39" fill="none" xmlns="http://www.w3.org/2000/svg">
<path d="M2.82688 3.5H4.30688V16.22H12.1469V17.5H2.82688V3.5ZM17.6042 3.5H19.0842V17.5H17.6042V3.5ZM30.4994 17.62C29.4594 17.62 28.4594 17.4533 27.4994 17.12C26.5527 16.7867 25.8194 16.3467 25.2994 15.8L25.8794 14.66C26.386 15.1667 27.0594 15.58 27.8994 15.9C28.7394 16.2067 29.606 16.36 30.4994 16.36C31.7527 16.36 32.6927 16.1333 33.3194 15.68C33.946 15.2133 34.2594 14.6133 34.2594 13.88C34.2594 13.32 34.086 12.8733 33.7394 12.54C33.406 12.2067 32.9927 11.9533 32.4994 11.78C32.006 11.5933 31.3194 11.3933 30.4394 11.18C29.386 10.9133 28.546 10.66 27.9194 10.42C27.2927 10.1667 26.7527 9.78667 26.2994 9.28C25.8594 8.77333 25.6394 8.08667 25.6394 7.22C25.6394 6.51333 25.826 5.87333 26.1994 5.3C26.5727 4.71333 27.146 4.24667 27.9194 3.9C28.6927 3.55333 29.6527 3.38 30.7994 3.38C31.5994 3.38 32.3794 3.49333 33.1394 3.72C33.9127 3.93333 34.5794 4.23333 35.1394 4.62L34.6394 5.8C34.0527 5.41333 33.426 5.12667 32.7594 4.94C32.0927 4.74 31.4394 4.64 30.7994 4.64C29.5727 4.64 28.646 4.88 28.0194 5.36C27.406 5.82667 27.0994 6.43333 27.0994 7.18C27.0994 7.74 27.266 8.19333 27.5994 8.54C27.946 8.87333 28.3727 9.13333 28.8794 9.32C29.3994 9.49333 30.0927 9.68667 30.9594 9.9C31.986 10.1533 32.8127 10.4067 33.4394 10.66C34.0794 10.9 34.6194 11.2733 35.0594 11.78C35.4994 12.2733 35.7194 12.9467 35.7194 13.8C35.7194 14.5067 35.526 15.1533 35.1394 15.74C34.766 16.3133 34.186 16.7733 33.3994 17.12C32.6127 17.4533 31.646 17.62 30.4994 17.62ZM50.7241 13.76H42.9241L41.2441 17.5H39.7041L46.1041 3.5H47.5641L53.9641 17.5H52.4041L50.7241 13.76ZM50.1841 12.56L46.8241 5.04L43.4641 12.56H50.1841ZM9.41695 33.5L9.40695 28.4L6.87695 32.65H6.41695L3.88695 28.43V33.5H2.92695V26.5H3.74695L6.66695 31.42L9.54695 26.5H10.367L10.377 33.5H9.41695ZM19.1377 31.75H15.4177L14.6477 33.5H13.6177L16.7877 26.5H17.7777L20.9577 33.5H19.9077L19.1377 31.75ZM18.7877 30.95L17.2777 27.52L15.7677 30.95H18.7877ZM28.882 33.5L27.372 31.35C27.1853 31.3633 27.0386 31.37 26.932 31.37H25.202V33.5H24.202V26.5H26.932C27.8386 26.5 28.552 26.7167 29.072 27.15C29.592 27.5833 29.852 28.18 29.852 28.94C29.852 29.48 29.7186 29.94 29.452 30.32C29.1853 30.7 28.8053 30.9767 28.312 31.15L29.972 33.5H28.882ZM26.902 30.52C27.5353 30.52 28.0186 30.3833 28.352 30.11C28.6853 29.8367 28.852 29.4467 28.852 28.94C28.852 28.4333 28.6853 28.0467 28.352 27.78C28.0186 27.5067 27.5353 27.37 26.902 27.37H25.202V30.52H26.902ZM34.9599 27.37H32.5599V26.5H38.3499V27.37H35.9499V33.5H34.9599V27.37ZM41.6391 26.5H42.6391V33.5H41.6391V26.5ZM52.9548 26.5V33.5H52.1348L47.9348 28.28V33.5H46.9348V26.5H47.7548L51.9548 31.72V26.5H52.9548Z" fill="white"/>
<path d="M2 22.5H54" stroke="white"/>
</svg>
