<svg xmlns="http://www.w3.org/2000/svg" viewBox="0 0 376.89 221.21"><defs><style>.cls-1{fill-rule:evenodd;}</style></defs><g id="Layer_2" data-name="Layer 2"><g id="Layer_1-2" data-name="Layer 1"><path class="cls-1" d="M166.92,0,274.3,138.45a17,17,0,0,0,28.52-18.6,16.22,16.22,0,0,0-1.73-2.23l-49.9-64.34h82.36a43.35,43.35,0,0,1,35.9,67.63l-68,87.66a36.7,36.7,0,0,1-55.53-.12l-35-45.11-35.07,45.23a36.71,36.71,0,0,1-55.54-.12L0,53.28,41.32,0,82.64,53.28l66.06,85.17a18.06,18.06,0,0,0,1.65,2.13,17,17,0,1,0,25.14-23L125.6,53.28Z"/></g></g></svg>