<svg xmlns="http://www.w3.org/2000/svg" viewBox="0 0 244.67 245.32"><defs><style>.cls-1{fill-rule:evenodd;}</style></defs><g id="Layer_2" data-name="Layer 2"><g id="Layer_1-2" data-name="Layer 1"><path class="cls-1" d="M0,55.68A52.85,52.85,0,0,1,41.86,34.86H157.19a52.83,52.83,0,0,1,49.52,34.86,52.4,52.4,0,0,1,.23,34.86,52.82,52.82,0,0,1-49.75,35.51H52.62a17.76,17.76,0,0,1,0-35.51H162a17.75,17.75,0,0,0-4.76-34.86H52.62A52.82,52.82,0,0,0,2.87,105.23a52.4,52.4,0,0,0,.23,34.86A52.83,52.83,0,0,0,52.62,175h69.74a17.76,17.76,0,0,1,0,35.51H13a17.75,17.75,0,0,0,4.76,34.86H122.33a52.67,52.67,0,0,0,52-44.78l44.77,44.78h25.11V220.21L191.8,167.77A88.28,88.28,0,0,0,227,140.09,87.48,87.48,0,0,0,157.19,0H17.43A17.43,17.43,0,0,0,0,17.43Z"/></g></g></svg>