<?xml version="1.0" encoding="utf-8"?>
<!-- Generator: Adobe Illustrator 25.3.1, SVG Export Plug-In . SVG Version: 6.00 Build 0)  -->
<svg version="1.1" id="Layer_1" xmlns="http://www.w3.org/2000/svg" xmlns:xlink="http://www.w3.org/1999/xlink" x="0px" y="0px"
	 viewBox="0 0 291.89 173.65" style="enable-background:new 0 0 291.89 173.65;" xml:space="preserve">
<style type="text/css">
	.st0{fill:#007CFE;}
	.st1{fill:#75C01F;}
	.st2{fill:#FFFFFF;}
	.st3{fill:url(#SVGID_1_);}
</style>
<g>
	<polygon class="st0" points="247.6,55.69 247.6,130.9 186.32,135.34 186.32,31.73 	"/>
	<polygon class="st1" points="179.42,40.02 179.42,140.45 106,153.8 106,48.16 106,42.7 106,20.02 179.42,6.67 179.42,31.73 	"/>
	<polygon class="st0" points="37.82,55.69 37.82,130.9 99.1,135.34 99.1,31.73 	"/>
	<g>
		<g>
			<path class="st2" d="M202.54,107.46h-13.82V67.5h13.82l28.84,26.14l0,0V67.5h13.82v39.96h-13.82L202.5,81.32l0,0L202.54,107.46z"
				/>
		</g>
		<g>
			<path class="st2" d="M158.73,67.5h13.88l-21.98,39.96h-15.97L112.81,67.5h13.88l16.02,30.07L158.73,67.5z"/>
		</g>
		<g>
			<path class="st2" d="M96.26,95.3c0,4.34-1.08,7.47-3.25,9.41c-2.17,1.94-5.64,2.9-10.42,2.9c-5.58,0-19.16,0-40.73,0v-8.67
				c22.37,0,33.96,0,34.77,0c0.8,0,1.54-0.03,2.21-0.1c0.67-0.07,1.29-0.21,1.86-0.44c0.57-0.22,1.03-0.56,1.37-1
				c0.35-0.44,0.52-1.02,0.52-1.73c0-0.81-0.24-1.47-0.71-1.97c-0.48-0.5-1.1-0.86-1.86-1.07c-0.77-0.22-1.56-0.35-2.38-0.41
				c-0.82-0.06-1.83-0.09-3.03-0.09c-0.71-0.03-2.76-0.1-6.14-0.2c-5.27-0.17-8.57-0.27-9.92-0.32c-1.34-0.05-2.61-0.1-3.8-0.15
				c-1.19-0.05-2.2-0.11-3.04-0.17c-4.24-0.22-7.27-1.46-9.1-3.74c-1.31-1.69-1.96-4.23-1.96-7.6c0-4.15,0.9-7.27,2.7-9.34
				c1.8-2.08,4.79-3.11,8.95-3.11c5.55,0,19.64,0,42.27,0v8.67c-22.37,0-33.96,0-34.77,0c-0.77,0-1.45,0.04-2.06,0.11
				c-0.61,0.07-1.18,0.22-1.72,0.44c-0.54,0.22-0.98,0.54-1.3,0.98c-0.33,0.44-0.49,1.03-0.49,1.76c0,1.28,0.52,2.12,1.55,2.53
				c1.04,0.41,2.47,0.61,4.3,0.61h1.2c0.54,0,0.92,0,1.15,0c0.69,0.05,2.7,0.12,6.02,0.22c4.59,0.13,7.78,0.23,9.57,0.3
				c1.78,0.07,3.29,0.12,4.51,0.17c1.22,0.05,2.24,0.11,3.04,0.17c4.2,0.22,7.14,1.58,8.82,4.09C95.65,89.63,96.26,92.21,96.26,95.3
				z"/>
		</g>
	</g>
	<linearGradient id="SVGID_1_" gradientUnits="userSpaceOnUse" x1="287.6692" y1="97.8775" x2="4.6701" y2="97.8775">
		<stop  offset="0" style="stop-color:#FFFF00"/>
		<stop  offset="0.3663" style="stop-color:#C4E02D"/>
		<stop  offset="0.7962" style="stop-color:#85BF5D"/>
		<stop  offset="1" style="stop-color:#6CB270"/>
	</linearGradient>
	<path class="st3" d="M28.63,96.13c-15.95,15.05-23.21,30.58-19.41,42.95c1.46,4.74,4.5,8.83,8.9,12.25
		c0.01,0.01,0.03,0.02,0.04,0.03c0.06,0.05,0.12,0.09,0.18,0.14l0.03,0.03c10.91,8.07,30.3,12.69,53.59,12.75l0.06,0
		c0.97,0,1.94,0,2.92-0.01c0.72-0.01,1.44-0.02,2.17-0.03c24.58-0.48,53.73-5.26,84.03-14.57c71.11-21.85,122.99-60.82,120.65-89.44
		l-0.02-0.16c-0.08-0.96-0.22-1.93-0.44-2.91c-0.67-3.06-1.95-5.81-3.65-8.08l-0.03-0.06c-0.02-0.03-0.05-0.06-0.07-0.1
		c-0.4-0.52-0.83-1.02-1.3-1.5c-0.1-0.11-0.21-0.21-0.31-0.31l-0.1-0.12c-12.94-13.37-39.23-20.24-69.06-17.3l-2.09,0.22
		c35.49-6.73,66.98,0.14,78.44,17.17l0.02,0.03c2.87,4.33,4.49,9.26,4.49,14.5c0,1.85-0.2,3.67-0.59,5.43l-0.01,0.04
		c-5.97,28.83-55.73,65.43-123.99,86.16c-32.26,9.8-62.83,14.73-88.35,15.11c-0.11,0-0.21,0-0.32,0l-0.07,0
		C47.18,169,24.69,163.6,13.76,153.8l-0.06-0.05c-0.03-0.03-0.07-0.06-0.1-0.09c-3.82-3.35-6.49-7.25-7.86-11.7
		C1.52,128.21,9.88,112.38,28.63,96.13"/>
</g>
</svg>
